<svg aria-hidden="true" style="position: absolute; width: 0; height: 0; overflow: hidden;" version="1.1" xmlns="http://www.w3.org/2000/svg" xmlns:xlink="http://www.w3.org/1999/xlink">
<defs>
<symbol id="icon-call" viewBox="0 0 32 32">
<path fill="#64646a" style="fill: var(--color1, #64646a)" d="M24.222 19.173c-0.896-0.193-1.604 0.223-2.231 0.586-0.642 0.374-1.864 1.365-2.564 1.112-3.585-1.476-6.957-4.614-8.417-8.214-0.257-0.715 0.729-1.945 1.101-2.595 0.36-0.629 0.768-1.344 0.582-2.247-0.168-0.811-2.339-3.573-3.106-4.329-0.506-0.499-1.025-0.773-1.557-0.818-2.002-0.086-4.237 2.585-4.629 3.224-0.982 1.362-0.977 3.175 0.017 5.374 2.394 5.905 11.447 14.815 17.374 17.299 1.094 0.511 2.094 0.768 2.992 0.768 0.879 0 1.662-0.245 2.335-0.732 0.508-0.293 3.288-2.639 3.215-4.694-0.044-0.524-0.318-1.048-0.81-1.555-0.75-0.775-3.494-3.010-4.299-3.18z"></path>
</symbol>
<symbol id="icon-email" viewBox="0 0 32 32">
<path fill="#64646a" style="fill: var(--color1, #64646a)" d="M20.735 17.328l-2.68 2.689c-1.087 1.091-2.999 1.114-4.11 0l-2.68-2.689-9.626 9.657c0.358 0.166 0.753 0.265 1.173 0.265h26.375c0.42 0 0.815-0.099 1.173-0.264l-9.626-9.657z"></path>
<path fill="#64646a" style="fill: var(--color1, #64646a)" d="M29.188 4.75h-26.375c-0.42 0-0.815 0.099-1.173 0.265l10.286 10.32c0.001 0.001 0.002 0.001 0.002 0.002s0.001 0.002 0.001 0.002l3.345 3.356c0.355 0.355 1.099 0.355 1.454 0l3.344-3.355c0 0 0.001-0.002 0.002-0.002s0.002-0.001 0.002-0.002l10.286-10.32c-0.358-0.166-0.753-0.264-1.173-0.264z"></path>
<path fill="#64646a" style="fill: var(--color1, #64646a)" d="M0.299 6.326c-0.185 0.375-0.299 0.791-0.299 1.237v16.875c0 0.446 0.114 0.862 0.299 1.237l9.643-9.674-9.643-9.675z"></path>
<path fill="#64646a" style="fill: var(--color1, #64646a)" d="M31.701 6.326l-9.643 9.675 9.643 9.674c0.185-0.375 0.299-0.791 0.299-1.237v-16.875c0-0.446-0.114-0.862-0.299-1.237z"></path>
</symbol>
</defs>
</svg>
