<svg aria-hidden="true" style="position: absolute; width: 0; height: 0; overflow: hidden;" version="1.1" xmlns="http://www.w3.org/2000/svg" xmlns:xlink="http://www.w3.org/1999/xlink">
<defs>
<symbol id="icon-basket" viewBox="0 0 32 32">
<path d="M10.843 3.339l-4.949 8.661h-1.893c-0.416 0-0.807 0.195-1.060 0.524-0.252 0.331-0.336 0.76-0.227 1.16l3.732 13.684c0.315 1.157 1.373 1.965 2.573 1.965h13.964c1.197 0 2.256-0.807 2.573-1.967l3.732-13.684c0.109-0.4 0.027-0.829-0.227-1.16-0.255-0.328-0.645-0.523-1.061-0.523h-1.893l-4.949-8.661-2.315 1.323 4.193 7.339h-14.072l4.193-7.339-2.315-1.323zM18.667 17.333h2.667v6.667h-2.667v-6.667zM10.667 17.333h2.667v6.667h-2.667v-6.667z"></path>
</symbol>
<symbol id="icon-ice-cream" viewBox="0 0 32 32">
<path fill="#64646a" style="fill: var(--color1, #64646a)" d="M24.78 11.017c-0.356-0.228-0.543-0.638-0.474-1.044 0.876-5.197-3.137-9.9-8.3-9.973-5.376-0.076-9.491 4.768-8.527 10.078 0.072 0.399-0.090 0.808-0.413 1.042-0.894 0.647-1.387 1.692-1.321 2.794 0.174 2.878 3.778 4.057 5.631 1.885 0.026 0.016 0.053 0.033 0.079 0.048 0.272 0.165 0.434 0.446 0.434 0.753v1.379c0 0.523 0.208 1.012 0.585 1.375 1.201 1.159 3.238 0.328 3.238-1.409v-3.126c0-0.761 0.889-1.165 1.431-0.639 0.166 0.161 0.256 0.376 0.256 0.605v1.602c0 1.072 0.885 1.948 1.981 1.911 1.441-0.053 1.747-1.142 1.826-1.969 2.075 1.465 4.954 0.037 5.049-2.493 0.042-1.131-0.524-2.212-1.477-2.821zM14.579 4.457c-0.456 0.152-0.485 0.232-0.685 0.232-0.571 0-0.74-0.778-0.226-1.018 0.187-0.087 0.38-0.163 0.576-0.228 0.28-0.093 0.582 0.059 0.675 0.34s-0.059 0.582-0.34 0.674zM11.234 7.919c-0.347 0-0.602-0.324-0.519-0.661 0.19-0.773 0.559-1.508 1.067-2.125 0.187-0.228 0.524-0.26 0.751-0.073s0.26 0.524 0.073 0.751c-0.407 0.495-0.702 1.083-0.854 1.702-0.059 0.244-0.278 0.406-0.518 0.406zM22.27 17.914c0.314 0.059 0.495 0.39 0.378 0.687l-4.776 12.059c-0.706 1.787-3.269 1.788-3.976 0l-4.762-12.022c-0.122-0.308 0.078-0.646 0.406-0.692 0.216-0.030 0.43-0.077 0.641-0.14 0.31-0.093 0.627 0.117 0.657 0.439 0.050 0.521 0.237 1.246 0.895 1.88 1.636 1.577 4.23 0.78 4.89-1.194 0.114-0.34 0.531-0.452 0.809-0.227 1.303 1.056 3.372 0.852 4.311-0.58 0.104-0.159 0.3-0.253 0.526-0.21z"></path>
</symbol>
<symbol id="icon-food" viewBox="0 0 32 32">
<path fill="#64646a" style="fill: var(--color1, #64646a)" d="M26.8 16.791c-0.145-0.166-0.268-0.348-0.37-0.539-0.050 5.146-4.251 9.317-9.409 9.317-5.188 0-9.41-4.221-9.41-9.41s4.221-9.41 9.41-9.41c4.463 0 8.211 3.124 9.171 7.3l0.871-6.477c-2.426-2.834-6.028-4.633-10.042-4.633-3.132 0-6.012 1.096-8.28 2.923v3.047c0 1.792-0.929 3.428-2.399 4.363v10.669c2.407 3.293 6.297 5.437 10.679 5.437 4.605 0 8.666-2.367 11.034-5.948v-5.811c-0.48-0.156-0.916-0.44-1.255-0.829z"></path>
<path fill="#64646a" style="fill: var(--color1, #64646a)" d="M17.022 8.349c-4.307 0-7.811 3.504-7.811 7.811s3.504 7.811 7.811 7.811c4.307 0 7.811-3.504 7.811-7.811s-3.504-7.811-7.811-7.811z"></path>
<path fill="#64646a" style="fill: var(--color1, #64646a)" d="M31.964 1.543c0-0.681-0.552-1.232-1.232-1.232-0.617 0-1.139 0.456-1.221 1.068l-1.801 13.384c-0.047 0.352 0.060 0.708 0.294 0.975s0.572 0.421 0.928 0.421h0.723v14.356c0 0.648 0.525 1.173 1.173 1.173s1.172-0.525 1.172-1.173l-0.035-28.973z"></path>
<path fill="#64646a" style="fill: var(--color1, #64646a)" d="M7.143 1.803c0-0.442-0.358-0.8-0.8-0.8s-0.8 0.358-0.8 0.8v4.424h-1.173v-4.424c0-0.442-0.358-0.8-0.8-0.8s-0.8 0.358-0.8 0.8v4.424h-1.173v-4.424c0-0.442-0.358-0.8-0.8-0.8s-0.8 0.358-0.8 0.8v7.214c0 1.559 1.004 2.886 2.399 3.373v18.127c0 0.648 0.525 1.173 1.173 1.173s1.173-0.525 1.173-1.173v-18.127c1.395-0.486 2.399-1.814 2.399-3.373v-7.214z"></path>
</symbol>
<symbol id="icon-fast-food" viewBox="0 0 32 32">
<path fill="#64646a" style="fill: var(--color1, #64646a)" d="M9.668 22.253c-0.846-0.485-1.418-1.397-1.418-2.441 0-4.308 3.505-7.813 7.813-7.813h3.219l0.152-2.5h-18.242l1.31 21.619c0.030 0.495 0.44 0.881 0.936 0.881h5.752c-0.59-0.784-0.94-1.758-0.94-2.813 0-1.216 0.775-2.253 1.857-2.645-0.384-0.588-0.607-1.289-0.607-2.042s0.224-1.456 0.609-2.044c-0.306-0.069-0.475-0.137-0.441-0.202z"></path>
<path fill="#64646a" style="fill: var(--color1, #64646a)" d="M10.312 7.625c0.001 0 0.001-0 0.002-0h9.374c0.518 0 0.938-0.42 0.938-0.938s-0.42-0.938-0.938-0.938h-7.644l2.527-3.875h3.242c0.518 0 0.938-0.42 0.938-0.938s-0.42-0.938-0.938-0.938h-3.75c-0.317 0-0.612 0.16-0.785 0.425l-3.473 5.325h-8.867c-0.518 0-0.938 0.42-0.938 0.938s0.42 0.938 0.938 0.938h9.371c0.001 0 0.002 0 0.003 0z"></path>
<path fill="#64646a" style="fill: var(--color1, #64646a)" d="M10.125 19.813c0 0.518 0.42 0.938 0.938 0.938h20c0.518 0 0.938-0.42 0.938-0.938 0-3.274-2.664-5.938-5.938-5.938h-10c-3.274 0-5.938 2.664-5.938 5.938z"></path>
<path fill="#64646a" style="fill: var(--color1, #64646a)" d="M13.25 22.625c-1.036 0-1.875 0.839-1.875 1.875s0.839 1.875 1.875 1.875h15.625c1.036 0 1.875-0.839 1.875-1.875s-0.839-1.875-1.875-1.875h-15.625z"></path>
<path fill="#64646a" style="fill: var(--color1, #64646a)" d="M31.062 28.25h-20c-0.518 0-0.938 0.42-0.938 0.937 0 1.551 1.262 2.813 2.813 2.813h16.25c1.551 0 2.813-1.262 2.813-2.813 0-0.518-0.42-0.937-0.938-0.937z"></path>
</symbol>
<symbol id="icon-right" viewBox="0 0 32 32">
<path stroke-linejoin="round" stroke-linecap="round" stroke-miterlimit="4" stroke-width="3.2" d="M6.667 16h18.667"></path>
<path stroke-linejoin="round" stroke-linecap="round" stroke-miterlimit="4" stroke-width="3.2" d="M16 6.667l9.333 9.333-9.333 9.333"></path>
</symbol>
<symbol id="icon-left" viewBox="0 0 32 32">
<path stroke-linejoin="round" stroke-linecap="round" stroke-miterlimit="4" stroke-width="3.2" d="M25.333 16h-18.667"></path>
<path stroke-linejoin="round" stroke-linecap="round" stroke-miterlimit="4" stroke-width="3.2" d="M16 6.667l-9.333 9.333 9.333 9.333"></path>
</symbol>
<symbol id="icon-twitter" viewBox="0 0 32 32">
<path fill="#64646a" style="fill: var(--color1, #64646a)" d="M26.177 10.663c0.017 0.233 0.017 0.465 0.017 0.697 0 7.1-5.404 15.281-15.28 15.281-3.043 0-5.869-0.881-8.248-2.412 0.432 0.049 0.848 0.067 1.297 0.067 2.511 0 4.821-0.848 6.668-2.295-2.361-0.049-4.34-1.596-5.023-3.724 0.332 0.049 0.665 0.083 1.015 0.083 0.481 0 0.965-0.067 1.415-0.183-2.463-0.499-4.307-2.66-4.307-5.271v-0.067c0.716 0.399 1.547 0.648 2.427 0.681-1.447-0.963-2.395-2.609-2.395-4.472 0-0.997 0.265-1.912 0.731-2.709 2.644 3.257 6.619 5.387 11.075 5.62-0.083-0.4-0.133-0.815-0.133-1.231 0-2.96 2.395-5.371 5.371-5.371 1.547 0 2.943 0.648 3.924 1.696 1.213-0.233 2.376-0.683 3.408-1.297-0.399 1.247-1.248 2.295-2.361 2.96 1.081-0.117 2.129-0.416 3.092-0.832-0.731 1.064-1.644 2.012-2.692 2.777z"></path>
</symbol>
<symbol id="icon-linkedin" viewBox="0 0 32 32">
<path fill="#64646a" style="fill: var(--color1, #64646a)" d="M6.644 9.596c1.611 0 2.917-1.306 2.917-2.917s-1.306-2.917-2.917-2.917c-1.611 0-2.917 1.306-2.917 2.917s1.306 2.917 2.917 2.917z"></path>
<path fill="#64646a" style="fill: var(--color1, #64646a)" d="M12.316 11.807v16.185h5.025v-8.004c0-2.112 0.397-4.157 3.016-4.157 2.583 0 2.615 2.415 2.615 4.291v7.872h5.028v-8.876c0-4.36-0.939-7.711-6.035-7.711-2.447 0-4.087 1.343-4.757 2.613h-0.068v-2.213h-4.824zM4.127 11.807h5.033v16.185h-5.033v-16.185z"></path>
</symbol>
<symbol id="icon-instagram" viewBox="0 0 32 32">
<path fill="#64646a" style="fill: var(--color1, #64646a)" d="M27.929 11.073c-0.015-1.009-0.201-2.011-0.559-2.955-0.625-1.612-1.899-2.887-3.511-3.511-0.932-0.351-1.917-0.539-2.915-0.56-1.283-0.057-1.689-0.073-4.945-0.073s-3.673 0-4.947 0.073c-0.996 0.021-1.981 0.209-2.913 0.56-1.612 0.624-2.887 1.899-3.511 3.511-0.351 0.932-0.54 1.917-0.559 2.913-0.057 1.284-0.075 1.691-0.075 4.947s0 3.672 0.075 4.947c0.020 0.997 0.208 1.981 0.559 2.916 0.625 1.611 1.899 2.885 3.512 3.509 0.928 0.363 1.913 0.568 2.913 0.6 1.284 0.057 1.691 0.075 4.947 0.075s3.673 0 4.947-0.075c0.996-0.020 1.981-0.208 2.915-0.559 1.612-0.625 2.885-1.9 3.511-3.511 0.351-0.933 0.539-1.917 0.559-2.916 0.057-1.283 0.075-1.689 0.075-4.947-0.003-3.256-0.003-3.669-0.077-4.945zM15.992 22.136c-3.405 0-6.164-2.759-6.164-6.164s2.759-6.164 6.164-6.164c3.403 0 6.164 2.759 6.164 6.164s-2.761 6.164-6.164 6.164zM22.401 11.017c-0.796 0-1.437-0.643-1.437-1.437s0.641-1.437 1.437-1.437c0.793 0 1.436 0.643 1.436 1.437s-0.643 1.437-1.436 1.437z"></path>
<path fill="#64646a" style="fill: var(--color1, #64646a)" d="M15.992 19.976c2.211 0 4.004-1.793 4.004-4.004s-1.793-4.004-4.004-4.004-4.004 1.793-4.004 4.004c0 2.211 1.793 4.004 4.004 4.004z"></path>
</symbol>
<symbol id="icon-facebook" viewBox="0 0 32 32">
<path fill="#64646a" style="fill: var(--color1, #64646a)" d="M17.863 27.996v-10.928h3.687l0.548-4.279h-4.235v-2.725c0-1.235 0.344-2.080 2.116-2.080h2.245v-3.815c-1.092-0.117-2.191-0.173-3.289-0.169-3.259 0-5.496 1.989-5.496 5.641v3.14h-3.663v4.279h3.671v10.936h4.416z"></path>
</symbol>
</defs>
</svg>
